<?xml version="1.0" encoding="utf-8"?><!-- Uploaded to: SVG Repo, www.svgrepo.com, Generator: SVG Repo Mixer Tools -->
<svg width="800px" height="800px" viewBox="0 0 24 24" fill="none" xmlns="http://www.w3.org/2000/svg">
<path d="M7.55301 13.1058C8.0431 12.8607 8.63822 13.0559 8.88875 13.5414C8.90255 13.5663 9.09071 13.892 9.49991 14.2194C9.96038 14.5877 10.7431 15.0002 12.0002 15.0002C13.2573 15.0002 14.0401 14.5877 14.5005 14.2194C14.9097 13.892 15.0979 13.5663 15.1117 13.5414C15.3622 13.0559 15.9573 12.8607 16.4474 13.1058C16.9352 13.3497 17.1387 13.961 16.8941 14.4485C16.8081 14.6113 16.7076 14.7654 16.5971 14.9127C16.4143 15.1565 16.1383 15.4704 15.7499 15.7811C14.9604 16.4127 13.7431 17.0002 12.0002 17.0002C10.2573 17.0002 9.04005 16.4127 8.25052 15.7811C7.8621 15.4704 7.58615 15.1565 7.40334 14.9127C7.29326 14.7659 7.18825 14.6118 7.10579 14.4474C6.8588 13.9535 7.05903 13.3528 7.55301 13.1058Z" fill="#0F0F0F"/>
<path fill-rule="evenodd" clip-rule="evenodd" d="M23 12C23 18.0751 18.0751 23 12 23C5.92487 23 1 18.0751 1 12C1 5.92487 5.92487 1 12 1C18.0751 1 23 5.92487 23 12ZM3.00683 12C3.00683 16.9668 7.03321 20.9932 12 20.9932C16.9668 20.9932 20.9932 16.9668 20.9932 12C20.9932 10.8118 20.7627 9.67741 20.3441 8.6391L18.9456 9.57142C18.6788 10.955 17.4615 12 16 12C14.6938 12 13.5825 11.1652 13.1707 10H10.8293C10.4175 11.1652 9.30622 12 8 12C6.53855 12 5.32117 10.955 5.05435 9.57142L3.65588 8.6391C3.23726 9.67741 3.00683 10.8118 3.00683 12ZM4.61103 6.87217L5.44448 7.4278C5.97268 6.57106 6.91965 6 8 6C9.30622 6 10.4175 6.83481 10.8293 8H13.1707C13.5825 6.83481 14.6938 6 16 6C17.0804 6 18.0273 6.57106 18.5555 7.4278L19.389 6.87217C17.7647 4.53605 15.0609 3.00683 12 3.00683C8.93907 3.00683 6.23531 4.53605 4.61103 6.87217ZM6.85236 9C6.85236 9.63382 7.36618 10.1476 8 10.1476C8.63382 10.1476 9.14764 9.63382 9.14764 9C9.14764 8.36618 8.63382 7.85236 8 7.85236C7.36618 7.85236 6.85236 8.36618 6.85236 9ZM16 10.1476C15.3662 10.1476 14.8524 9.63382 14.8524 9C14.8524 8.36618 15.3662 7.85236 16 7.85236C16.6338 7.85236 17.1476 8.36618 17.1476 9C17.1476 9.63382 16.6338 10.1476 16 10.1476Z" fill="#0F0F0F"/>
</svg>